<?xml version="1.0" encoding="utf-8"?>
<!-- Generator: Adobe Illustrator 26.0.0, SVG Export Plug-In . SVG Version: 6.00 Build 0)  -->
<svg version="1.1" id="Layer_1" xmlns="http://www.w3.org/2000/svg" xmlns:xlink="http://www.w3.org/1999/xlink" x="0px" y="0px"
	 viewBox="0 0 512 512" style="enable-background:new 0 0 512 512;" xml:space="preserve">
<style type="text/css">
	.st0{fill:url(#SVGID_1_);}
	.st1{fill:#FFFFFF;}
</style>
<linearGradient id="SVGID_1_" gradientUnits="userSpaceOnUse" x1="256" y1="512" x2="256" y2="-9.094947e-13">
	<stop  offset="0" style="stop-color:#B21F13"/>
	<stop  offset="1" style="stop-color:#DB3725"/>
</linearGradient>
<rect class="st0" width="512" height="512"/>
<g>
	<g>
		<g>
			<g>
				<path class="st1" d="M387.83,284.16c21.16,0,38.73-15.31,42.26-35.46c0.11-0.66,0.22-1.32,0.3-1.98
					c0.26-1.85,0.14-1.41-0.58-1.11c-0.38,0.19-1.32,0.57-1.94,0.79c-9.42,3.3-19.56,5.09-30.09,5.09l-105.15,0.02
					c-2.39-0.06-5.95,0.23-8.87-1.87c-0.38-0.33-0.61-0.36-0.34,0.35c1.1,3.13,9.76,28.77,9.76,28.77
					c1.94,4.92,6.53,5.43,10.46,5.43L387.83,284.16z"/>
				<path class="st1" d="M296.94,289.66c0.35,1.16,5.37,15.18,5.37,15.18c3.98,11.2,14.28,19.05,26.62,19.05l45.08,0.04
					c22,0,40.17-16.58,42.63-37.94c0.18-1.19,0.13-0.79-1.03-0.4c-9.87,3.66-20.48,5.65-31.62,5.65c0,0-74.14,0.11-77.56,0
					c-3.42-0.11-5.85-0.13-8.64-1.64C297.41,289.44,296.53,288.71,296.94,289.66z"/>
				<path class="st1" d="M94.66,262.85c-9.92-8.37-12.4-17.76-12.57-27.42c-0.12-6.63,2.01-13.85,5.16-19.2l85.87,67.56
					c14.19,10.74,29.17,7.59,38.5-0.95c0.48-0.47,0.52-0.28,0.43,0.26c-0.09,0.43-2.35,14.27-3.72,20.12
					c-4.07,17.31-28.48,27.66-44.69,15.15L94.66,262.85z"/>
				<path class="st1" d="M232.53,170.97c-5.86,6-10.38,16.93-13.49,25.19c-2.3,6.11-5.36,8.47-9.65,9.06
					c-5.53,0.77-8.8-0.36-13.31-3.85c-4.46-3.46-46.26-36.97-49.13-39.33c-0.81,0.89-24.56,21.63-24.56,21.63l66.98,52.87
					c4.89,3.5,10.1,7.14,16.69,6.26c15.46-2.44,17.31-16.8,20.02-27.96c0.77-3.07,1.58-6,2.45-8.81
					c10.07-32.62,26.71-48.19,46.79-57.5c1.18-0.54,0.47,0.15,0.22,0.42c-7.43,8.03-11.3,21.13-9.95,38.1
					c1.2,15.11,11.21,45.84,12.79,49.82c1.36,3.2,3.41,7.54,10.54,7.54l105.85,0.01c22.06,0,40.23-15.77,42.66-37.13
					c0.09-0.95,0.25-0.86-0.97-0.35c-9.85,3.59-20.52,4.83-31.64,4.83c0,0-91.1,0.13-109.18-0.01
					c-14.92-0.12-17.89-19.49-18.15-24.09c-2.24-27.85,11.76-40.16,11.76-40.16c7.16-7.91,14.82-7.58,16.69-7.39
					c0.09,0.01,0.68,0.06,0.16-0.31c-2.03-1.45-9.32-6.61-12.75-9.11c-3.23-2.52-7.14-3.23-10.81-1.56l-20.64,8.53
					c-1.76,0.71-3.7-0.38-5.28-1.23c-1.18-0.67-2.78-1.06-4.51-0.2c0,0-21.38,10.95-28.83,14.22c-6.22,2.73-11.67,0.59-16.36-4.2
					c-0.68-0.67-0.55-1.11-0.97,0.13c-0.87,2.29-1.35,4.78-1.35,7.38c0,6.53,2.31,12.89,7.43,16.24c5.27,3.46,12.36,3.08,20.23,0.46
					C233.32,170.14,232.98,170.48,232.53,170.97z"/>
				<path class="st1" d="M171.37,90.16c11.6-10.44,16.18-28.9,11.38-44.51c-0.47-1.71-0.49-1.27-1.01-0.31
					c-4.07,6.78-12.22,15.15-18.36,20.29l-79.67,71.75c-7.21,6.56-9.34,14.67-9.2,22.95c0,0-0.01,17.73-0.02,20.75
					c-0.04,1.48,0.52,1.02,0.73-0.07c1.21-5.37,5.72-10.62,12.89-17.3C90.58,161.48,171.37,90.16,171.37,90.16"/>
				<g>
					<path class="st1" d="M312.84,380.81c-6.51-19.61-25.3-31.04-35.53-38.28c-4.26-3.01-21.75-14.76-29.07-26.27
						c-14.85-23.34-6.89-40.61-0.38-51.51c1.66-2.92,1.31-1.94,1.32-0.51c0.23,11.82,6.96,25.19,25.47,36.72
						c20.48,12.63,44.86,32.62,39.67,80.98C313.89,385.78,313.27,382.12,312.84,380.81z"/>
					<path class="st1" d="M217.46,386.9c-5.2,6.77-8.39,16.1-8.01,25.73c0.25,6.36,2.5,12.96,6.93,20.08
						c0.26,0.45,0.8,1.31-0.18,0.67c-37.53-22.74-37.19-76.3-5.89-107.65c0.36-0.42,0.24,0.16,0.21,0.52
						c-2.19,19.54,15.78,35.9,25.3,44.12c7.57,6.53,20.51,16.02,30.41,23.21c10.98,7.97,19.06,18.74,20.46,32.59
						c5.01-5.91,3.05-12.31,2.33-14.88c-4.73-16.62-26.5-29.19-32.38-33.95c-8.89-7.22-19.94-15.55-29.33-30.24
						c-9.12-14.25-8.04-41.54,0.91-50.9c0.81-0.86,0.63-0.43,0.67,0.61c-0.2,14.16,9.29,22.24,15.4,28.85
						c8.2,8.88,37.26,28.76,44.58,35.46c17.69,16.19,26.12,44.02,11.58,73.06c-6.73,13.44-17.97,29.65-50.29,33.31
						c-1.46,0.14-1.19-0.3-0.39-0.67c12.58-5.84,14.39-15.97,14.11-23.57c-0.48-12.7-8.28-19.82-20.71-28.49
						C227.7,404.91,220.83,394.98,217.46,386.9z"/>
				</g>
				<path class="st1" d="M178.45,278.57c16.01,11.03,35.25,0.27,38.64-19.42c1.09-4.79,3.01-14.46,3.08-14.84
					c0.1-0.51-0.07-0.4-0.36-0.16c-11.81,9.4-21.79,7.58-33.59-0.53l-69.52-55.02c0,0-22.04,20.22-24.13,22.26L178.45,278.57z"/>
				<path class="st1" d="M74.54,223.67c-0.01,1.7,0.53,1.09,0.88-0.28c1.76-8,9.3-14.89,16.25-21.94c0,0,0.6-0.73,10.41-9.63
					c9.8-8.9,59.16-51.72,59.16-51.72c10.7-9.69,21.53-26.67,17.03-46.46c-0.28-1.35-0.43-0.73-0.81-0.23
					c-2.22,3.28-8.69,9.24-18.72,17.93c-19.33,16.93-50.05,43.72-66.74,58.87c-3.84,3.49-9.89,8.73-12.32,12.44
					c-5.19,7.43-5.11,13.57-5.15,18.42L74.54,223.67z"/>
			</g>
		</g>
	</g>
	<g>
		<path class="st1" d="M329.15,416.81c-6.69,0-12.5,5.03-12.5,12.19c0,7.22,5.81,12.25,12.5,12.25c6.61,0,12.42-5.03,12.42-12.25
			C341.56,421.84,335.76,416.81,329.15,416.81z M329.15,439.33c-5.68,0-10.2-4.6-10.2-10.33c0-5.67,4.52-10.26,10.2-10.26
			c5.67,0,10.12,4.59,10.12,10.26C339.27,434.73,334.81,439.33,329.15,439.33z"/>
		<path class="st1" d="M331.57,428.97v-0.13c1.69-0.34,2.77-1.62,2.77-3.32c0-2.76-2.36-3.44-4.73-3.44h-5.34v13.65h2.3v-5.95h2.91
			c0.8,0,1.48,0.47,1.81,1.15c0.41,0.67,0.43,1.55,0.48,2.5l0,2.3h2.3v-2.3c0.01-0.66-0.1-1.39-0.13-1.64
			C333.84,431.03,333.53,429.24,331.57,428.97z M329.49,427.96h-2.91v-4.13h2.91c1.89,0,2.43,0.88,2.43,2.03
			C331.91,427.01,331.3,427.96,329.49,427.96z"/>
	</g>
</g>
</svg>
